<?xml version="1.0" encoding="utf-8"?>
<!-- Generator: Adobe Illustrator 16.0.0, SVG Export Plug-In . SVG Version: 6.00 Build 0)  -->
<!DOCTYPE svg PUBLIC "-//W3C//DTD SVG 1.1//EN" "http://www.w3.org/Graphics/SVG/1.1/DTD/svg11.dtd">
<svg version="1.1" id="图层_1" xmlns="http://www.w3.org/2000/svg" xmlns:xlink="http://www.w3.org/1999/xlink" x="0px" y="0px"
	 width="125px" height="125px" viewBox="0 0 125 125" enable-background="new 0 0 125 125" xml:space="preserve">
<path fill="#8DC21F" d="M62.319,35.229H9.5c-5.063,0-9.17,4.105-9.17,9.168v23.711c0,5.063,4.107,9.169,9.17,9.169h24.476
	l14.063,17.251L50.1,77.277h12.219c5.064,0,9.167-4.105,9.167-9.169V44.397C71.486,39.334,67.383,35.229,62.319,35.229z"/>
<path fill="#182987" d="M64.543,101.826l5.545-24.279H58.556c-7.285,0-13.213-5.928-13.213-13.211V40.624
	c0-7.284,5.928-13.211,13.213-13.211h52.817c7.288,0,13.214,5.927,13.214,13.211v23.712c0,7.283-5.926,13.211-13.214,13.211H92.781
	L64.543,101.826z M58.556,35.5c-2.828,0-5.126,2.299-5.126,5.125v23.712c0,2.825,2.299,5.125,5.126,5.125h21.672l-2.336,10.223
	l11.892-10.223h21.589c2.827,0,5.127-2.3,5.127-5.125V40.624c0-2.825-2.3-5.125-5.127-5.125H58.556z"/>
</svg>
